# AST/ASF file generated using VICON BodyLanguage
# -----------------------------------------------
:version 1.10
:name VICON
:units
  mass 1.0
  length 0.45
  angle deg
:documentation
   .ast/.asf automatically generated from VICON data using
   VICON BodyBuilder and BodyLanguage model FoxedUp or BRILLIANT.MOD
:root
   order TX TY TZ RX RY RZ
   axis XYZ
   position 0 0 0  
   orientation 0 0 0 
:bonedata
  begin
     id 1 
     name lhipjoint
     direction 0.54267 -0.795011 0.271047 
     length 2.39899 
     axis 0 0 0  XYZ
  end
  begin
     id 2 
     name lfemur
     direction 0.34202 -0.939693 0  
     length 7.49701  
     axis 0 0 20  XYZ
    dof rx ry rz
    limits (-160.0 20.0)
           (-70.0 70.0)
           (-60.0 70.0)
  end
  begin
     id 3 
     name ltibia
     direction 0.34202 -0.939693 0   
     length 8.1668   
     axis 0 0 20   XYZ
    dof rx
    limits (-10.0 170.0)
  end
  begin
     id 4 
     name lfoot
     direction 0.0736283 -0.202292 0.976554   
     length 2.13544   
     axis -90 7.62852e-016 20   XYZ
    dof rx rz
    limits (-45.0 90.0)
           (-70.0 20.0)
  end
  begin
     id 5 
     name ltoes
     direction 1.53557e-011 -4.22024e-011 1   
     length 1.07411   
     axis -90 7.62852e-016 20   XYZ
    dof rx
    limits (-90.0 20.0)
  end
  begin
     id 6 
     name rhipjoint
     direction -0.538061 -0.797813 0.272002   
     length 2.39057  
     axis 0 0 0  XYZ 
  end
  begin
     id 7 
     name rfemur
     direction -0.34202 -0.939693 0   
     length 7.50152   
     axis 0 0 -20   XYZ
    dof rx ry rz
    limits (-160.0 20.0)
           (-70.0 70.0)
           (-70.0 60.0)
  end
  begin
     id 8 
     name rtibia
     direction -0.34202 -0.939693 0   
     length 8.05793   
     axis 0 0 -20   XYZ
    dof rx
    limits (-10.0 170.0)
 end
 begin
     id 9 
     name rfoot
     direction -0.0765195 -0.210236 0.974652   
     length 2.28698  
     axis -90 -7.62852e-016 -20   XYZ
    dof rx rz
    limits (-45.0 90.0)
           (-20.0 70.0)
  end
  begin
     id 10 
     name rtoes
     direction -1.53542e-011 -4.21847e-011 1   
     length 1.14762   
     axis -90 -7.62852e-016 -20   XYZ
    dof rx
    limits (-90.0 20.0)
  end
  begin
     id 11 
     name lowerback
     direction -0.0217239 0.996592 -0.0795765   
     length 2.08176   
     axis 0 0 0   XYZ
    dof rx ry rz
    limits (-20.0 45.0)
           (-30.0 30.0)
           (-30.0 30.0)
  end
  begin
     id 12 
     name upperback
     direction -0.00563773 0.999651 -0.0258155   
     length 2.08898   
     axis 0 0 0   XYZ
    dof rx ry rz
    limits (-20.0 45.0)
           (-30.0 30.0)
           (-30.0 30.0)
  end
  begin
     id 13 
     name thorax
     direction 0.0032706 0.999923 0.0119599   
     length 2.0968   
     axis 0 0 0   XYZ
    dof rx ry rz
    limits (-20.0 45.0)
           (-30.0 30.0)
           (-30.0 30.0)
  end
  begin
     id 14 
     name lowerneck
     direction -0.0285886 0.99568 0.0883427   
     length 1.81272   
     axis 0 0 0   XYZ
    dof rx ry rz
    limits (-20.0 45.0)
           (-30.0 30.0)
           (-30.0 30.0)
  end
  begin
     id 15 
     name upperneck
     direction 0.0807535 0.97985 -0.18268   
     length 1.82518   
     axis 0 0 0   XYZ
    dof rx ry rz
    limits (-20.0 45.0)
           (-30.0 30.0)
           (-30.0 30.0)
  end
  begin
     id 16
     name head
     direction 0.0236605 0.997053 -0.0729767  
     length 1.84443  
     axis 0 0 0   XYZ
    dof rx ry rz
    limits (-20.0 45.0)
           (-30.0 30.0)
           (-30.0 30.0)
  end
  begin
     id 17 
     name lclavicle
     direction 0.918986 0.39378 -0.0200683  
     length 3.27822  
     axis 0 0 0   XYZ
    dof ry rz
    limits (-20.0 10.0)
           (0.0 20.0)
  end
  begin
     id 18 
     name lhumerus
     direction 1 -4.4897e-011 2.09544e-027   
     length 5.5568   
     axis 180 -30 -90   XYZ
    dof rx ry rz
    limits (-60.0 90.0)
           (-90.0 90.0)
           (-90.0 90.0)
  end
  begin
     id 19
     name lradius
     direction 1 -4.48957e-011 -1.27696e-026   
     length 3.63979   
     axis 180 -30 -90   XYZ
    dof rx
    limits (-10.0 170.0)
  end
  begin
     id 20
     name lwrist
     direction 1 -4.49001e-011 -1.49001e-026   
     length 1.8199   
     axis 9.0955e-015 90 90   XYZ
    dof ry
    limits (-180.0 0.0)
 end
  begin
     id 21 
     name lhand
     direction 1 -4.48709e-011 -2.9758e-026   
     length 0.569419   
     axis 1.90115e-014 90 90   XYZ
    dof rx rz
    limits (-90.0 90.0)
           (-45.0 45.0)
  end
  begin
     id 22 
     name lfingers
     direction 1 -4.49175e-011 -5.96505e-026   
     length 0.45908   
     axis 3.80223e-014 90 90   XYZ
    dof rx
    limits (0.0 90.0)
  end
  begin
     id 23
     name lthumb
     direction 0.707107 -6.34864e-011 0.707107   
     length 0.65915   
     axis -90 45 -3.84942e-014   XYZ
    dof rx rz
    limits (-45.0 45.0)
           (-45.0 45.0)
  end
  begin
     id 24 
     name rclavicle
     direction -0.911913 0.396426 -0.106115   
     length 3.46301  
     axis 0 0 0   XYZ 
    dof ry rz
    limits (-10.0 20.0)
           (-20.0 0.0)
  end
  begin
     id 25 
     name rhumerus
     direction -1 -4.48965e-011 7.78516e-028  
     length 5.34339   
     axis 180 30 90   XYZ
    dof rx ry rz
    limits (-90.0 60.0)
           (-90.0 90.0)
           (-90.0 90.0)
  end
  begin
     id 26 
     name rradius
     direction -1 -4.48948e-011 -5.79823e-027   
     length 3.65101   
     axis 180 30 90   XYZ
    dof rx
    limits (-10.0 170.0)
  end
  begin
     id 27 
     name rwrist
     direction -1 -4.48995e-011 -1.48996e-026   
     length 1.8255   
     axis 9.0955e-015 -90 -90   XYZ
    dof ry
    limits (-180.0 0.0)
  end
  begin
     id 28
     name rhand
     direction -1 -4.48957e-011 -2.97937e-026   
     length 0.694249   
     axis 1.90115e-014 -90 -90   XYZ
    dof rx rz
    limits (-90.0 90.0)
           (-45.0 45.0)
  end
  begin
     id 29
     name rfingers
     direction -1 -4.4898e-011 -5.95943e-026   
     length 0.559721   
     axis 3.80223e-014 -90 -90   XYZ
    dof rx
    limits (0.0 90.0)
  end
  begin
     id 30
     name rthumb
     direction -0.707107 -6.34969e-011 0.707107   
     length 0.803651   
     axis -90 -45 3.84942e-014   XYZ
    dof rx rz
    limits (-45.0 45.0)
           (-45.0 45.0)
  end
:hierarchy
  begin
    root lhipjoint rhipjoint lowerback
    lhipjoint lfemur
    lfemur ltibia
    ltibia lfoot
    lfoot ltoes
    rhipjoint rfemur
    rfemur rtibia
    rtibia rfoot
    rfoot rtoes
    lowerback upperback
    upperback thorax
    thorax lowerneck lclavicle rclavicle
    lowerneck upperneck
    upperneck head
    lclavicle lhumerus
    lhumerus lradius
    lradius lwrist
    lwrist lhand lthumb
    lhand lfingers
    rclavicle rhumerus
    rhumerus rradius
    rradius rwrist
    rwrist rhand rthumb
    rhand rfingers
  end

#!OML:ASF H:\Terrain\Walking\May29\JustinRory\rory.ASF
:FULLY-SPECIFIED
:DEGREES
478
root 2.06283 17.5442 -7.52584 -184.072 80.3531 172.408
lowerback 4.89286 1.35786 -0.983109
upperback 0.802611 1.764 -0.382137
thorax -1.93421 0.891639 0.0442402
lowerneck -3.58811 -1.97551 -3.66296
upperneck 6.22578 -2.39408 0.190049
head 2.64844 -1.2565 0.61073
rclavicle -6.78353e-015 2.13694e-015
rhumerus -27.3587 -0.810562 -59.0702
rradius 139.586
rwrist -32.7324
rhand 0.280855 31.6682
rfingers 7.12502
rthumb 25.8594 3.40639
lclavicle -6.78353e-015 2.13694e-015
lhumerus -23.5998 5.79012 50.263
lradius 139.952
lwrist 53.8482
lhand 18.1699 33.1725
lfingers 7.12502
lthumb 42.8266 57.4794
rfemur -4.60006 -0.587491 16.1495
rtibia 35.166
rfoot -29.5367 -21.2417
rtoes 7.56881
lfemur -28.0632 15.5156 -20.9875
ltibia 50.0424
lfoot -13.4261 -6.55891
ltoes 0.268476
479
root 1.9578 17.5366 -7.533 -182.922 80.6533 173.696
lowerback 5.3387 1.42549 -0.303988
upperback 1.07737 1.89252 -0.429522
thorax -1.87856 0.953558 -0.400611
lowerneck -3.43051 -2.03545 -3.72156
upperneck 5.50811 -2.50132 0.356946
head 2.38593 -1.30186 0.673454
rclavicle -7.45443e-017 6.5102e-015
rhumerus -22.8682 -5.78216 -57.3434
rradius 139.528
rwrist -31.948
rhand -2.06925 31.8131
rfingers 7.12502
rthumb 23.607 3.24223
lclavicle -7.45443e-017 6.5102e-015
lhumerus -19.0558 10.3514 48.9377
lradius 138.826
lwrist 52.0077
lhand 14.5627 31.1146
lfingers 7.12502
lthumb 39.4398 56.5072
rfemur -4.85137 -0.0463891 16.2139
rtibia 35.3586
rfoot -30.8824 -17.8419
rtoes 16.7333
lfemur -29.1868 14.9494 -20.4598
ltibia 51.5707
lfoot -12.5483 -7.12902
ltoes 0.285282
480
root 1.84887 17.5218 -7.53672 -181.817 80.9659 175.002
lowerback 5.98977 1.5173 0.112223
upperback 1.29189 2.04599 -0.307027
thorax -2.0106 1.03036 -0.53429
lowerneck -3.12454 -2.09258 -4.12256
upperneck 4.79519 -2.59032 0.568023
head 2.10859 -1.34264 0.810748
rclavicle 2.49475e-014 -5.36719e-015
rhumerus -18.224 -10.5028 -56.2218
rradius 138.879
rwrist -30.9017
rhand -4.15359 32.186
rfingers 7.12502
rthumb 21.6065 3.37142
lclavicle 2.49475e-014 -5.36719e-015
lhumerus -14.6385 14.4863 48.7593
lradius 137.378
lwrist 49.4662
lhand 11.7768 29.0387
lfingers 7.12502
lthumb 36.8096 55.1522
rfemur -5.25323 0.165206 16.2744
rtibia 35.7184
rfoot -31.4921 -15.8554
rtoes 21.147
lfemur -30.1801 13.9521 -19.8554
ltibia 52.9299
lfoot -11.7285 -7.85023
ltoes 0.0126601
481
root 1.73292 17.4632 -7.53535 -182.49 81.1648 174.613
lowerback 6.60602 1.60019 0.0941985
upperback 1.60154 2.16698 -0.177907
thorax -2.03979 1.09493 -0.414614
lowerneck -2.67096 -2.15553 -4.378
upperneck 3.97053 -2.68751 0.476509
head 1.76413 -1.38854 0.827748
rclavicle -8.69683e-016 -3.97569e-016
rhumerus -13.2355 -14.8621 -56.0849
rradius 137.669
rwrist -29.6287
rhand -6.52571 31.8182
rfingers 7.12502
rthumb 19.3269 2.75861
lclavicle -8.69683e-016 -3.97569e-016
lhumerus -10.3193 17.9015 49.5545
lradius 135.87
lwrist 45.8329
lhand 8.28845 26.9669
lfingers 7.12502
lthumb 33.5012 53.86
rfemur -5.76091 0.105916 16.0314
rtibia 36.2613
rfoot -31.1996 -16.0602
rtoes 18.313
lfemur -31.3225 14.9264 -19.5781
ltibia 54.2189
lfoot -9.83493 -10.58
ltoes -4.04452
482
root 1.62391 17.4367 -7.54946 -182.428 81.3878 175.079
lowerback 7.28164 1.64855 0.323109
upperback 2.03793 2.26602 -0.0153577
thorax -1.96297 1.15048 -0.397585
lowerneck -2.67877 -2.24811 -4.60895
upperneck 3.36456 -2.80194 0.344293
head 1.57502 -1.44366 0.823842
rclavicle 1.41137e-014 -4.57205e-015
rhumerus -7.64935 -18.404 -57.2787
rradius 135.843
rwrist -27.7699
rhand -8.56917 31.243
rfingers 7.12502
rthumb 17.3611 1.9984
lclavicle 1.41137e-014 -4.57205e-015
lhumerus -5.76265 20.6855 51.2522
lradius 133.944
lwrist 41.4232
lhand 4.5916 24.7879
lfingers 7.12502
lthumb 29.9804 52.3787
rfemur -6.12601 -0.0704504 15.8605
rtibia 36.7707
rfoot -29.8897 -17.595
rtoes 9.58315
lfemur -32.0416 14.8399 -19.103
ltibia 55.115
lfoot -8.35568 -13.0856
ltoes -7.6704
483
root 1.52391 17.4259 -7.57459 -179.268 81.6685 178.697
lowerback 8.05588 1.57562 1.20909
upperback 2.37751 2.26082 0.155101
thorax -2.01487 1.15345 -0.736729
lowerneck -2.7823 -2.25712 -4.78736
upperneck 3.03838 -2.8062 0.373026
head 1.49284 -1.44302 0.863203
rclavicle 2.6985e-014 3.18055e-015
rhumerus -1.70028 -20.7555 -59.7585
rradius 133.382
rwrist -25.537
rhand -9.70082 30.7948
rfingers 7.12502
rthumb 16.2717 1.45761
lclavicle 2.6985e-014 3.18055e-015
lhumerus -1.35413 22.5557 53.1798
lradius 131.538
lwrist 37.045
lhand 0.659849 22.2437
lfingers 7.12502
lthumb 26.2222 50.4521
rfemur -6.40189 -0.397728 16.1409
rtibia 37.2889
rfoot -29.0017 -18.4077
rtoes 3.09442
lfemur -32.55 14.3645 -18.0863
ltibia 55.6263
lfoot -7.03503 -15.6389
ltoes -8.4148
484
root 1.42975 17.4335 -7.59909 -176.002 81.9155 182.318
lowerback 8.71048 1.38648 2.08463
upperback 2.45158 2.10714 0.32222
thorax -2.27835 1.07649 -1.05958
lowerneck -2.17627 -2.07808 -4.97814
upperneck 2.92232 -2.5847 0.189181
head 1.34396 -1.33403 0.847705
rclavicle -2.23136e-014 -1.49089e-014
rhumerus 3.97939 -21.5285 -62.5798
rradius 130.474
rwrist -23.6678
rhand -10.4646 30.3656
rfingers 7.12502
rthumb 15.5363 0.969688
lclavicle -2.23136e-014 -1.49089e-014
lhumerus 2.36636 23.5651 54.9452
lradius 128.864
lwrist 33.5759
lhand -3.24283 19.9273
lfingers 7.12502
lthumb 22.4809 48.6388
rfemur -6.60369 -0.825393 16.3757
rtibia 37.6163
rfoot -29.0756 -17.2642
rtoes 4.18049
lfemur -32.9746 13.8533 -17.1298
ltibia 55.6246
lfoot -5.51359 -18.0127
ltoes -6.53662
485
root 1.34121 17.4411 -7.62209 -174.74 82.2291 183.746
lowerback 9.14364 1.37109 2.31397
upperback 2.42378 2.12903 0.533808
thorax -2.5457 1.08441 -0.986128
lowerneck -1.65754 -1.94333 -4.69305
upperneck 3.30062 -2.39695 -0.66819
head 1.34925 -1.25122 0.53712
rclavicle -1.26725e-014 3.97569e-016
rhumerus 9.02876 -21.3133 -64.8824
rradius 127.251
rwrist -22.6201
rhand -10.8259 30.1635
rfingers 7.12502
rthumb 15.1882 0.740974
lclavicle -1.26725e-014 3.97569e-016
lhumerus 6.0654 23.6039 56.8911
lradius 125.88
lwrist 31.1003
lhand -5.55214 19.025
lfingers 7.12502
lthumb 20.2628 47.988
rfemur -6.89663 -0.99178 16.3197
rtibia 37.8229
rfoot -29.1862 -15.8974
rtoes 7.39617
lfemur -33.3974 13.485 -16.6414
ltibia 55.1827
lfoot -4.04036 -19.6856
ltoes -3.59004
486
root 1.26461 17.4464 -7.64123 -175.097 82.611 183.43
lowerback 9.49372 1.52886 2.0215
upperback 2.32344 2.3272 0.703543
thorax -2.85561 1.17944 -0.68242
lowerneck -1.24223 -1.927 -3.87541
upperneck 3.76628 -2.35563 -1.79706
head 1.39395 -1.23904 0.0524746
rclavicle 1.47598e-014 7.95139e-016
rhumerus 13.4059 -20.4983 -66.7393
rradius 123.422
rwrist -21.2477
rhand -10.1088 29.6984
rfingers 7.12502
rthumb 15.8789 0.329472
lclavicle 1.47598e-014 7.95139e-016
lhumerus 9.74539 22.9644 58.4263
lradius 122.445
lwrist 30.0711
lhand -6.29167 19.7802
lfingers 7.12502
lthumb 19.552 48.8171
rfemur -7.21153 -0.658184 16.1431
rtibia 37.9616
rfoot -29.3214 -15.4385
rtoes 9.66835
lfemur -33.7393 13.3383 -16.4699
ltibia 54.3776
lfoot -3.34068 -20.2763
ltoes -3.44008
487
root 1.20086 17.468 -7.66187 -178.234 83.1185 180.353
lowerback 9.61981 1.56081 1.70911
upperback 2.35029 2.33657 0.560765
thorax -2.90367 1.18518 -0.659694
lowerneck -0.630714 -1.80948 -3.32887
upperneck 3.84363 -2.20895 -2.39615
head 1.29629 -1.16169 -0.21478
rclavicle 1.80397e-014 -4.77083e-015
rhumerus 17.5559 -18.6388 -68.7377
rradius 118.771
rwrist -19.0012
rhand -8.97215 29.0212
rfingers 7.12502
rthumb 16.9733 -0.257187
lclavicle 1.80397e-014 -4.77083e-015
lhumerus 12.8181 21.354 59.9714
lradius 118.974
lwrist 28.9247
lhand -5.21298 20.5921
lfingers 7.12502
lthumb 20.5888 49.5202
rfemur -7.39713 -0.315692 15.5827
rtibia 37.9787
rfoot -29.2806 -15.2545
rtoes 10.4485
lfemur -33.7455 13.0867 -16.5782
ltibia 53.2767
lfoot -3.40336 -19.8132
ltoes -3.39512
488
root 1.14201 17.4981 -7.68585 -183.704 83.7389 174.864
lowerback 10.5812 1.85366 0.139021
upperback 1.70834 2.59447 1.1729
thorax -4.1955 1.31577 0.775892
lowerneck 0.252916 -1.80873 -3.77423
upperneck 4.52775 -2.15631 -3.21064
head 1.35767 -1.14715 -0.387836
rclavicle 5.10877e-014 1.07344e-014
rhumerus 20.3305 -15.673 -68.4247
rradius 113.349
rwrist -17.1226
rhand -8.06134 28.5315
rfingers 7.12502
rthumb 17.8498 -0.669307
lclavicle 5.10877e-014 1.07344e-014
lhumerus 14.4498 19.4003 61.281
lradius 114.874
lwrist 28.6536
lhand -3.90049 21.6313
lfingers 7.12502
lthumb 21.8495 50.4177
rfemur -7.61865 -0.0242281 14.7305
rtibia 37.7986
rfoot -29.3055 -14.7032
rtoes 11.6847
lfemur -33.6577 12.7476 -16.83
ltibia 51.9814
lfoot -3.97089 -18.6414
ltoes -2.24028
489
root 1.08488 17.5233 -7.71344 -185.355 84.409 173.048
lowerback 10.9885 2.03239 -0.399985
upperback 1.29777 2.7812 1.44457
thorax -4.89314 1.41616 1.31212
lowerneck 0.870031 -1.78679 -3.78425
upperneck 5.05794 -2.09661 -3.66757
head 1.41556 -1.12118 -0.524715
rclavicle 1.02374e-014 2.38542e-015
rhumerus 22.8793 -12.5629 -67.8083
rradius 107.312
rwrist -15.83
rhand -7.34357 27.931
rfingers 7.12502
rthumb 18.5404 -1.20541
lclavicle 1.02374e-014 2.38542e-015
lhumerus 16.3227 17.1494 61.2226
lradius 110.179
lwrist 28.7805
lhand -4.16227 23.4224
lfingers 7.12502
lthumb 21.5981 52.2379
rfemur -7.96244 0.500281 14.4571
rtibia 37.4347
rfoot -29.2356 -14.9022
rtoes 11.168
lfemur -33.7563 12.6061 -16.5842
ltibia 50.5947
lfoot -4.9577 -16.7695
ltoes -4.01045
490
root 1.03559 17.5527 -7.74372 -183.34 84.9854 175.044
lowerback 11.2197 2.12433 -0.341501
upperback 1.1568 2.9223 1.62988
thorax -5.181 1.48661 1.43996
lowerneck 1.11146 -1.77206 -3.57139
upperneck 5.59687 -2.03818 -3.97088
head 1.54071 -1.09698 -0.655965
rclavicle -1.35174e-014 -4.77083e-015
rhumerus 25.3151 -9.283 -66.3832
rradius 100.735
rwrist -14.8598
rhand -6.81731 27.2354
rfingers 7.12502
rthumb 19.0465 -1.85205
lclavicle -1.35174e-014 -4.77083e-015
lhumerus 18.2102 14.3887 60.3554
lradius 105.067
lwrist 28.5949
lhand -4.10028 25.1604
lfingers 7.12502
lthumb 21.6577 53.9691
rfemur -8.01803 1.07926 14.6248
rtibia 36.9298
rfoot -28.9731 -15.5094
rtoes 8.41566
lfemur -33.6299 12.4184 -15.8688
ltibia 49.1443
lfoot -6.32393 -14.2275
ltoes -6.71564
491
root 0.995358 17.5896 -7.7761 -183.404 85.4971 174.978
lowerback 11.2034 2.1957 -0.324774
upperback 1.16359 3.01951 1.64304
thorax -5.16765 1.53418 1.42977
lowerneck 1.28703 -1.74918 -3.24969
upperneck 6.05874 -1.97398 -4.20298
head 1.65318 -1.06667 -0.784032
rclavicle -1.10325e-014 -2.38542e-015
rhumerus 27.8194 -5.98379 -64.319
rradius 93.5593
rwrist -13.4048
rhand -5.63639 27.1251
rfingers 7.12502
rthumb 20.1819 -1.84649
lclavicle -1.10325e-014 -2.38542e-015
lhumerus 20.2372 11.1844 58.783
lradius 99.3849
lwrist 27.6454
lhand -2.95235 25.4741
lfingers 7.12502
lthumb 22.7597 54.1516
rfemur -7.89918 1.65754 14.5359
rtibia 36.2707
rfoot -29.0416 -14.9826
rtoes 8.12301
lfemur -33.3224 12.0439 -15.2964
ltibia 47.6273
lfoot -7.77783 -11.253
ltoes -7.57727
